<?xml version="1.0" standalone="no"?>
<!DOCTYPE svg PUBLIC "-//W3C//DTD SVG 20010904//EN"
 "http://www.w3.org/TR/2001/REC-SVG-20010904/DTD/svg10.dtd">
<svg version="1.0" xmlns="http://www.w3.org/2000/svg"
 width="207.000000pt" height="207.000000pt" viewBox="0 0 207.000000 207.000000"
 preserveAspectRatio="xMidYMid meet">
<metadata>
Created by potrace 1.11, written by Peter Selinger 2001-2013
</metadata>
<g transform="translate(0.000000,207.000000) scale(0.100000,-0.100000)"
fill="#000000" stroke="none">
<path d="M820 2055 c-413 -92 -728 -416 -806 -831 -22 -122 -15 -336 16 -449
52 -192 131 -328 274 -471 144 -144 278 -222 471 -274 113 -31 327 -38 449
-16 394 75 705 360 818 751 20 71 23 101 23 270 0 208 -10 264 -75 417 -94
221 -305 435 -525 533 -142 63 -217 78 -405 81 -127 3 -193 -1 -240 -11z m501
-822 c13 -16 12 -17 -3 -4 -17 13 -22 21 -14 21 2 0 10 -8 17 -17z m-821 -21
c19 -10 55 -33 80 -51 60 -44 139 -83 225 -111 39 -13 78 -28 88 -35 17 -12
17 -13 0 -19 -13 -6 -6 -13 35 -37 29 -16 52 -34 52 -39 0 -6 7 -10 15 -10 8
0 15 -6 15 -12 0 -7 25 -35 55 -61 78 -68 74 -77 -31 -77 -65 0 -104 6 -162
26 -42 14 -84 23 -93 21 -10 -3 -22 4 -29 18 -7 13 -48 51 -92 86 -83 65 -142
131 -130 144 4 5 2 5 -5 1 -6 -3 -14 -2 -18 4 -3 5 0 10 8 10 8 0 20 6 26 14
10 12 6 14 -21 13 -31 -2 -35 2 -62 56 -24 49 -27 60 -15 68 19 12 20 12 59
-9z m390 -18 c0 -8 -5 -12 -10 -9 -6 4 -8 11 -5 16 9 14 15 11 15 -7z m-175
-354 c10 -11 16 -20 13 -20 -3 0 -13 9 -23 20 -10 11 -16 20 -13 20 3 0 13 -9
23 -20z m324 -317 c3 -4 47 -9 96 -9 69 -1 79 0 45 6 l-45 7 46 1 c44 2 46 1
57 -34 9 -30 8 -36 -5 -41 -9 -4 -86 -7 -172 -7 -169 -1 -217 10 -241 54 -11
21 -10 22 17 16 16 -4 40 -2 54 4 21 9 20 10 -11 5 -27 -4 -30 -3 -15 4 24 11
165 7 174 -6z m-289 -230 c0 -2 -5 -1 -12 3 -7 4 -8 3 -4 -5 4 -6 11 -9 15 -6
5 2 44 -8 87 -24 55 -20 73 -30 59 -34 -11 -3 -2 -3 19 0 27 4 37 2 32 -5 -5
-8 38 -9 149 -5 177 7 162 17 144 -97 l-12 -69 -56 -8 c-86 -12 -247 -7 -335
12 -113 24 -216 64 -216 84 0 15 36 173 45 199 3 9 16 5 45 -14 22 -15 40 -29
40 -31z"/>
<path d="M560 1007 c0 -2 38 -35 85 -72 47 -37 94 -79 105 -93 11 -13 20 -19
20 -13 0 16 -30 44 -115 112 -74 58 -95 73 -95 66z"/>
<path d="M790 260 c8 -5 20 -10 25 -10 6 0 3 5 -5 10 -8 5 -19 10 -25 10 -5 0
-3 -5 5 -10z"/>
<path d="M840 240 c8 -5 20 -10 25 -10 6 0 3 5 -5 10 -8 5 -19 10 -25 10 -5 0
-3 -5 5 -10z"/>
<path d="M1118 203 c23 -2 61 -2 85 0 23 2 4 4 -43 4 -47 0 -66 -2 -42 -4z"/>
</g>
</svg>
